<svg xmlns="http://www.w3.org/2000/svg" xmlns:xlink="http://www.w3.org/1999/xlink" width="500" zoomAndPan="magnify" viewBox="0 0 375 374.999991" height="500" preserveAspectRatio="xMidYMid meet" version="1.0"><defs><g/></defs><g fill="#006fee" fill-opacity="1"><g transform="translate(127.82585, 199.648844)"><g><path d="M 34.59375 -27.484375 L 21.53125 -14.359375 L 35.890625 0 L 23.671875 0 L 12.6875 -10.984375 L 12.6875 0 L 3.21875 0 L 3.21875 -46.0625 L 12.6875 -46.0625 L 12.6875 -17.890625 L 22.28125 -27.484375 Z M 34.59375 -27.484375 "/></g></g></g><g fill="#006fee" fill-opacity="1"><g transform="translate(157.868843, 199.648844)"><g><path d="M 12.15625 -27.484375 L 12.15625 -14.40625 C 12.15625 -11.695312 12.566406 -9.769531 13.390625 -8.625 C 14.210938 -7.476562 15.601562 -6.90625 17.5625 -6.90625 C 19.53125 -6.90625 20.925781 -7.476562 21.75 -8.625 C 22.570312 -9.769531 22.984375 -11.695312 22.984375 -14.40625 L 22.984375 -27.484375 L 32.453125 -27.484375 L 32.453125 -12.109375 C 32.453125 -7.535156 31.265625 -4.238281 28.890625 -2.21875 C 26.515625 -0.207031 22.738281 0.796875 17.5625 0.796875 C 12.382812 0.796875 8.609375 -0.207031 6.234375 -2.21875 C 3.859375 -4.238281 2.671875 -7.535156 2.671875 -12.109375 L 2.671875 -27.484375 Z M 12.15625 -27.484375 "/></g></g></g><g fill="#006fee" fill-opacity="1"><g transform="translate(188.447386, 199.648844)"><g><path d="M 3.21875 0 L 3.21875 -27.484375 L 12.6875 -27.484375 L 12.6875 -23.515625 L 12.796875 -23.515625 C 12.867188 -23.660156 12.984375 -23.835938 13.140625 -24.046875 C 13.304688 -24.265625 13.65625 -24.640625 14.1875 -25.171875 C 14.726562 -25.710938 15.300781 -26.195312 15.90625 -26.625 C 16.507812 -27.050781 17.296875 -27.429688 18.265625 -27.765625 C 19.234375 -28.109375 20.210938 -28.28125 21.203125 -28.28125 C 22.242188 -28.28125 23.265625 -28.132812 24.265625 -27.84375 C 25.265625 -27.5625 25.992188 -27.28125 26.453125 -27 L 27.203125 -26.5625 L 23.25 -18.53125 C 22.070312 -19.53125 20.425781 -20.03125 18.3125 -20.03125 C 17.175781 -20.03125 16.195312 -19.78125 15.375 -19.28125 C 14.550781 -18.78125 13.96875 -18.171875 13.625 -17.453125 C 13.289062 -16.742188 13.050781 -16.140625 12.90625 -15.640625 C 12.757812 -15.140625 12.6875 -14.75 12.6875 -14.46875 L 12.6875 0 Z M 3.21875 0 "/></g></g></g><g fill="#006fee" fill-opacity="1"><g transform="translate(210.564271, 199.648844)"><g><path d="M 5.078125 -3.40625 C 2.515625 -6.207031 1.234375 -9.640625 1.234375 -13.703125 C 1.234375 -17.773438 2.515625 -21.222656 5.078125 -24.046875 C 7.648438 -26.867188 10.921875 -28.28125 14.890625 -28.28125 C 18.535156 -28.28125 21.535156 -27.140625 23.890625 -24.859375 L 23.890625 -27.484375 L 33.375 -27.484375 L 33.375 0 L 24 0 L 24 -3.109375 L 23.890625 -3.109375 C 21.535156 -0.503906 18.535156 0.796875 14.890625 0.796875 C 10.921875 0.796875 7.648438 -0.601562 5.078125 -3.40625 Z M 13.140625 -18.359375 C 11.910156 -17.148438 11.296875 -15.597656 11.296875 -13.703125 C 11.296875 -11.816406 11.882812 -10.273438 13.0625 -9.078125 C 14.25 -7.878906 15.804688 -7.28125 17.734375 -7.28125 C 19.585938 -7.28125 21.113281 -7.882812 22.3125 -9.09375 C 23.507812 -10.3125 24.109375 -11.851562 24.109375 -13.71875 C 24.109375 -15.601562 23.488281 -17.148438 22.25 -18.359375 C 21.019531 -19.578125 19.515625 -20.1875 17.734375 -20.1875 C 15.910156 -20.1875 14.378906 -19.578125 13.140625 -18.359375 Z M 13.140625 -18.359375 "/></g></g></g><path stroke-linecap="butt" transform="matrix(0.75, 0, 0, 0.75, 90.574247, 228.073139)" fill="none" stroke-linejoin="miter" d="M -0.0000370697 5.001439 L 84.43226 5.001439 " stroke="#006fee" stroke-width="10" stroke-opacity="1" stroke-miterlimit="4"/><path stroke-linecap="butt" transform="matrix(0, 0.75, -0.75, 0, 98.070394, 171.479446)" fill="none" stroke-linejoin="miter" d="M 0.00136321 5.000109 L 82.46491 5.000109 " stroke="#006fee" stroke-width="10" stroke-opacity="1" stroke-miterlimit="4"/><path stroke-linecap="butt" transform="matrix(-0.75, 0, 0, -0.75, 283.487477, 146.919146)" fill="none" stroke-linejoin="miter" d="M -0.00107222 5.00157 L 84.431225 5.00157 " stroke="#006fee" stroke-width="10" stroke-opacity="1" stroke-miterlimit="4"/><path stroke-linecap="butt" transform="matrix(0, -0.75, 0.75, 0, 275.991344, 203.512837)" fill="none" stroke-linejoin="miter" d="M 0.00149105 5.001125 L 82.465038 5.001125 " stroke="#006fee" stroke-width="10" stroke-opacity="1" stroke-miterlimit="4"/></svg>